<svg id="visual" viewBox="0 0 1200 540" width="1200" height="540" xmlns="http://www.w3.org/2000/svg" xmlns:xlink="http://www.w3.org/1999/xlink" version="1.1"><defs><linearGradient id="grad1_0" x1="55%" y1="0%" x2="100%" y2="100%"><stop offset="5.555555555555554%" stop-color="#ffffff" stop-opacity="1"></stop><stop offset="94.44444444444446%" stop-color="#ffffff" stop-opacity="1"></stop></linearGradient></defs><defs><linearGradient id="grad2_0" x1="0%" y1="0%" x2="45%" y2="100%"><stop offset="5.555555555555554%" stop-color="#ffffff" stop-opacity="1"></stop><stop offset="94.44444444444446%" stop-color="#ffffff" stop-opacity="1"></stop></linearGradient></defs><g transform="translate(1200, 0)"><path d="M0 378C-58.3 373.6 -116.7 369.2 -134.7 325.2C-152.7 281.2 -130.4 197.7 -168.3 168.3C-206.2 138.9 -304.2 163.7 -349.2 144.7C-394.2 125.6 -386.1 62.8 -378 0L0 0Z" fill="#cdde00" data-index="0"></path></g><g transform="translate(0, 540)"><path d="M0 -378C53.7 -379.3 107.4 -380.5 144.7 -349.2C181.9 -317.9 202.7 -254.1 205.1 -205.1C207.4 -156 191.4 -121.7 217.1 -89.9C242.9 -58.2 310.4 -29.1 378 0L0 0Z" fill="#cdde00" data-index="1"></path></g></svg>